HIERARCHY
ROOT hip
{
  OFFSET 0 0 0
  CHANNELS 6 Xposition Yposition Zposition Zrotation Yrotation Xrotation
  JOINT abdomen
  {
    OFFSET 0 20.6881 -0.73152
    CHANNELS 3 Zrotation Xrotation Yrotation
    JOINT chest
    {
      OFFSET 0 11.7043 -0.48768
      CHANNELS 3 Zrotation Xrotation Yrotation
      JOINT neck
      {
        OFFSET 0 22.1894 -2.19456
        CHANNELS 3 Zrotation Xrotation Yrotation
        JOINT head
        {
          OFFSET -0.24384 7.07133 1.2192
          CHANNELS 3 Zrotation Xrotation Yrotation
          JOINT leftEye
          {
            OFFSET 4.14528 8.04674 8.04672
            CHANNELS 3 Zrotation Xrotation Yrotation
            End Site
            {
              OFFSET 1 0 0
            }
          }
          JOINT rightEye
          {
            OFFSET -3.6576 8.04674 8.04672
            CHANNELS 3 Zrotation Xrotation Yrotation
            End Site
            {
              OFFSET 1 0 0
            }
          }
        }
      }
      JOINT rCollar
      {
        OFFSET -2.68224 19.2634 -4.8768
        CHANNELS 3 Zrotation Xrotation Yrotation
        JOINT rShldr
        {
          OFFSET -8.77824 -1.95073 1.46304
          CHANNELS 3 Zrotation Xrotation Yrotation
          JOINT rForeArm
          {
            OFFSET -28.1742 -1.7115 0.48768
            CHANNELS 3 Zrotation Xrotation Yrotation
            JOINT rHand
            {
              OFFSET -22.5879 0.773209 7.07136
              CHANNELS 3 Zrotation Xrotation Yrotation
              JOINT rThumb1
              {
                OFFSET -1.2192 -0.487915 3.41376
                CHANNELS 3 Zrotation Xrotation Yrotation
                JOINT rThumb2
                {
                  OFFSET -3.37035 -0.52449 3.41376
                  CHANNELS 3 Zrotation Xrotation Yrotation
                  End Site
                  {
                    OFFSET -1.78271 -1.18214 1.43049
                  }
                }
              }
              JOINT rIndex1
              {
                OFFSET -7.75947 0.938293 5.60832
                CHANNELS 3 Zrotation Xrotation Yrotation
                JOINT rIndex2
                {
                  OFFSET -2.54057 -0.884171 1.56538
                  CHANNELS 3 Zrotation Xrotation Yrotation
                  End Site
                  {
                    OFFSET -1.62519 -0.234802 1.16502
                  }
                }
              }
              JOINT rMid1
              {
                OFFSET -8.24714 1.18213 3.41376
                CHANNELS 3 Zrotation Xrotation Yrotation
                JOINT rMid2
                {
                  OFFSET -3.10165 -0.590103 1.0647
                  CHANNELS 3 Zrotation Xrotation Yrotation
                  End Site
                  {
                    OFFSET -2.48547 -0.328903 0.83742
                  }
                }
              }
              JOINT rRing1
              {
                OFFSET -8.82822 0.546677 1.51678
                CHANNELS 3 Zrotation Xrotation Yrotation
                JOINT rRing2
                {
                  OFFSET -2.60934 -0.819778 -0.0198488
                  CHANNELS 3 Zrotation Xrotation Yrotation
                  End Site
                  {
                    OFFSET -2.33842 -0.294052 0.168128
                  }
                }
              }
              JOINT rPinky1
              {
                OFFSET -8.27202 -0.0477905 -0.4584
                CHANNELS 3 Zrotation Xrotation Yrotation
                JOINT rPinky2
                {
                  OFFSET -1.82734 -0.647385 -0.700984
                  CHANNELS 3 Zrotation Xrotation Yrotation
                  End Site
                  {
                    OFFSET -1.69225 -0.51767 -0.607171
                  }
                }
              }
            }
          }
        }
      }
      JOINT lCollar
      {
        OFFSET 2.68224 19.2634 -4.8768
        CHANNELS 3 Zrotation Xrotation Yrotation
        JOINT lShldr
        {
          OFFSET 8.77824 -1.95073 1.46304
          CHANNELS 3 Zrotation Xrotation Yrotation
          JOINT lForeArm
          {
            OFFSET 28.1742 -1.7115 0.48768
            CHANNELS 3 Zrotation Xrotation Yrotation
            JOINT lHand
            {
              OFFSET 22.5879 0.773209 7.07136
              CHANNELS 3 Zrotation Xrotation Yrotation
              JOINT lThumb1
              {
                OFFSET 1.2192 -0.487915 3.41376
                CHANNELS 3 Zrotation Xrotation Yrotation
                JOINT lThumb2
                {
                  OFFSET 3.37035 -0.52449 3.41376
                  CHANNELS 3 Zrotation Xrotation Yrotation
                  End Site
                  {
                    OFFSET 1.78271 -1.18214 1.43049
                  }
                }
              }
              JOINT lIndex1
              {
                OFFSET 7.75947 0.938293 5.60832
                CHANNELS 3 Zrotation Xrotation Yrotation
                JOINT lIndex2
                {
                  OFFSET 2.54057 -0.884171 1.56538
                  CHANNELS 3 Zrotation Xrotation Yrotation
                  End Site
                  {
                    OFFSET 1.62519 -0.234802 1.16502
                  }
                }
              }
              JOINT lMid1
              {
                OFFSET 8.24714 1.18213 3.41376
                CHANNELS 3 Zrotation Xrotation Yrotation
                JOINT lMid2
                {
                  OFFSET 3.10165 -0.590103 1.0647
                  CHANNELS 3 Zrotation Xrotation Yrotation
                  End Site
                  {
                    OFFSET 2.48547 -0.328903 0.83742
                  }
                }
              }
              JOINT lRing1
              {
                OFFSET 8.82822 0.546677 1.51678
                CHANNELS 3 Zrotation Xrotation Yrotation
                JOINT lRing2
                {
                  OFFSET 2.60934 -0.819778 -0.0198488
                  CHANNELS 3 Zrotation Xrotation Yrotation
                  End Site
                  {
                    OFFSET 2.33842 -0.294052 0.168128
                  }
                }
              }
              JOINT lPinky1
              {
                OFFSET 8.27202 -0.0477905 -0.4584
                CHANNELS 3 Zrotation Xrotation Yrotation
                JOINT lPinky2
                {
                  OFFSET 1.82734 -0.647385 -0.700984
                  CHANNELS 3 Zrotation Xrotation Yrotation
                  End Site
                  {
                    OFFSET 1.69225 -0.51767 -0.607171
                  }
                }
              }
            }
          }
        }
      }
    }
  }
  JOINT rButtock
  {
    OFFSET -8.77824 4.35084 1.2192
    CHANNELS 3 Zrotation Xrotation Yrotation
    JOINT rThigh
    {
      OFFSET 0 -1.70687 -2.19456
      CHANNELS 3 Zrotation Xrotation Yrotation
      JOINT rShin
      {
        OFFSET 0 -36.8199 0.73152
        CHANNELS 3 Zrotation Xrotation Yrotation
        JOINT rFoot
        {
          OFFSET 0.73152 -45.1104 -5.12064
          CHANNELS 3 Zrotation Xrotation Yrotation
          End Site
          {
            OFFSET -1.1221 -3.69964 12.103
          }
        }
      }
    }
  }
  JOINT lButtock
  {
    OFFSET 8.77824 4.35084 1.2192
    CHANNELS 3 Zrotation Xrotation Yrotation
    JOINT lThigh
    {
      OFFSET 0 -1.70687 -2.19456
      CHANNELS 3 Zrotation Xrotation Yrotation
      JOINT lShin
      {
        OFFSET 0 -36.8199 0.73152
        CHANNELS 3 Zrotation Xrotation Yrotation
        JOINT lFoot
        {
          OFFSET -0.73152 -45.1104 -5.12064
          CHANNELS 3 Zrotation Xrotation Yrotation
          End Site
          {
            OFFSET 1.1221 -3.69964 12.103
          }
        }
      }
    }
  }
}
MOTION
Frames:	4
Frame Time:	0.03333
-0.0024000000848900527 77.10080146789551 0.09299999801442027 -2.303100087653749 2.9076000037302037 2.841600099223782 -2.939120046089343 5.055259926913272 3.519689967521835 2.2619499054517145 -6.473780080724554 1.0461199908504981 -5.755169901731988 9.63670023959265 -4.563490148653762 7.401099923298376 -12.016299726611011 -7.499249741671459 -0.0 0.0 0.0 -0.0 0.0 0.0 -2.271269976093433e-14 9.013229754090325e-14 1.6248000400309585e-13 44.76959848096704 39.75039981843732 52.62109900738263 -19.179299255442743 -12.013400311308342 36.72309946884218 -0.6585039806879242 -22.412400034919543 -3.322869955738278 -5.19864992328394e-10 8.041419758342652e-10 -1.8651100336202545e-11 -8.96980031266341e-10 1.4316900140896315e-09 -4.1961899641375006e-11 -5.19863998405056e-10 8.041460012237839e-10 -1.8655700337651028e-11 7.730910121524428 5.474879855648998 0.41731399283890674 -5.198680237945748e-10 8.041540023066544e-10 -1.8648800335478304e-11 2.90554006136521 0.9651829962377875 0.10290200252939893 -5.198569912455234e-10 8.041399879875892e-10 -1.864420033402982e-11 10.278599710243157 0.7318009818271524 0.025912300303053633 -5.198700116412506e-10 8.041370062175754e-10 -1.8640300737933552e-11 2.221669932038622 -0.7334870246959406 -0.20891999872313852 -2.2946399746956056e-14 9.013229754090325e-14 1.622310014559169e-13 -51.399898749824786 46.480099830286264 -60.90149784763459 17.306799479389163 -9.960230078876876 -32.482900956625336 0.9891880162409147 -27.036299791687483 4.112859880425708 -2.70923002258328e-10 -3.9481199305877835e-09 -8.519569937265477e-10 -4.475420115534268e-10 -6.796419955098889e-09 -1.4815100238354085e-09 -2.709239961816659e-10 -3.948109991354404e-09 -8.519449672541583e-10 -7.730910121524428 5.474879855648998 -0.41731399283890674 -2.709279967231012e-10 -3.9481298698211624e-09 -8.519579876498855e-10 -2.90554006136521 0.9651829962377875 -0.10290200252939893 -2.709300094178606e-10 -3.948109991354404e-09 -8.519540119565337e-10 -10.278599710243157 0.7318009818271524 -0.025912300303053633 -2.709209895635686e-10 -3.948109991354404e-09 -8.519589815732235e-10 -2.221669932038622 -0.7334870246959406 0.20891999872313852 -2.0321699793705798e-16 0.0 -3.882510030490358e-19 3.8917401900093616 -34.37570005489219 -2.5067400433235636 -1.0357400243027828 59.81099667493952 1.5836300518777024 0.2135550024465062 -23.73700081877492 0.5763020136965861 2.0321699793705798e-16 0.0 3.882510030490358e-19 -6.000590124554771 -35.07760102985397 -2.1934599701060002 1.0480199573785252 60.707499984638716 -1.7340399954680805 5.209920169158102 -23.2396008302052 9.693629866324706
-0.006399999983841553 77.06120014190674 0.17899999511428177 -2.301499902397262 2.8908000862494996 2.8371000717778014 -2.9664800763571217 4.963240203320275 3.528300061300871 2.2870800923988956 -6.4363497902992375 1.0478800452222459 -5.751649792988493 9.581140065789182 -4.573639809760401 7.391529974497542 -11.869799852877055 -7.525970295478195 -0.0 0.0 0.0 -0.0 0.0 0.0 -1.6164299485617612e-13 -9.87417019573554e-15 2.0060400106864317e-13 44.94099866309393 39.773301442724375 52.50660113123112 -19.14740056447149 -11.975900011444033 36.648298652146785 -0.6563850212196335 -22.3786998815547 -3.31732000015082 -2.514189961167564e-10 1.8033999488272657e-09 -3.3252801071843207e-10 -4.3089901374016545e-10 3.141059944921776e-09 -5.815369912214764e-10 -2.514229966581917e-10 1.803410086845313e-09 -3.3253601180130266e-10 7.730910121524428 5.474879855648998 0.41731399283890674 -2.514220027348537e-10 1.8033999488272657e-09 -3.3252599802367274e-10 2.90554006136521 0.9651829962377875 0.10290200252939893 -2.5141499557532116e-10 1.8033999488272657e-09 -3.325229914055754e-10 10.278599710243157 0.7318009818271524 0.025912300303053633 -2.514279911229649e-10 1.8033999488272657e-09 -3.3251300247602893e-10 2.221669932038622 -0.7334870246959406 -0.20891999872313852 -1.6176599772238963e-13 -9.874529631512969e-15 2.003429991296034e-13 -51.4743990381967 46.550498590061586 -60.767202668173795 17.297399431543933 -9.950670375359797 -32.462301106088574 0.9878679754621039 -27.01990050749028 4.1099497929524595 1.194750021046652e-10 -4.4167599528360304e-09 -1.2959600418428435e-09 2.363990005701291e-10 -7.559109811465807e-09 -2.2430599495260233e-09 1.1947300183394757e-10 -4.4167599528360304e-09 -1.29595000321713e-09 -7.730910121524428 5.474879855648998 -0.41731399283890674 1.1947399575728555e-10 -4.4167599528360304e-09 -1.29595000321713e-09 -2.90554006136521 0.9651829962377875 -0.10290200252939893 1.1947100156322995e-10 -4.4167599528360304e-09 -1.29595000321713e-09 -10.278599710243157 0.7318009818271524 -0.025912300303053633 1.194819968401561e-10 -4.416750013602651e-09 -1.2959600418428435e-09 -2.221669932038622 -0.7334870246959406 0.20891999872313852 -2.0321699793705798e-16 0.0 -3.882510030490358e-19 3.870070134207027 -34.343700618630685 -2.5318200710690273 -1.041089983413607 59.897200492454246 1.5890699773865002 0.24932100789080028 -23.833200618139962 0.6407319885501097 2.0321699793705798e-16 0.0 3.882510030490358e-19 -6.015260090231489 -35.03960127240661 -2.1911599039029985 1.0535100420890404 60.79780191565545 -1.7416099795025703 5.274199933210738 -23.305500202864778 9.797610104928042
-0.021799999376526102 77.019202709198 0.26099999668076634 -2.3114999396723954 2.874199951802018 2.8334000302383586 -2.9544100648766514 4.883160077283284 3.5241500810498536 2.3100799006552672 -6.408430111406341 1.0473499585096293 -5.746989896427252 9.565769578835715 -4.575640201413568 7.369759600291772 -11.76519977460654 -7.53741000856432 -0.0 0.0 0.0 -0.0 0.0 0.0 -1.683730036220645e-13 -4.087550069086643e-14 1.9392799563255517e-13 45.06430065308558 39.82020093666027 52.41300021884527 -19.11830054351265 -11.941599655205875 36.58009921328421 -0.656815002972227 -22.385600080163705 -3.318449969571634 -9.090899932160133e-11 1.9352100862138175e-09 -4.3016500135508395e-10 -1.5233700245925699e-10 3.3558398207909934e-09 -7.478659867429531e-10 -9.0913298040038e-11 1.9352100862138175e-09 -4.3017499028463044e-10 7.730910121524428 5.474879855648998 0.41731399283890674 -9.090940310295738e-11 1.9351999481957703e-09 -4.3015998204222725e-10 2.90554006136521 0.9651829962377875 0.10290200252939893 -9.090430303382949e-11 1.9351999481957703e-09 -4.3015998204222725e-10 10.278599710243157 0.7318009818271524 0.025912300303053633 -9.091910006752333e-11 1.9352100862138175e-09 -4.301499931126808e-10 2.221669932038622 -0.7334870246959406 -0.20891999872313852 -1.68409001797647e-13 -4.087789996259593e-14 1.9372500086488717e-13 -51.601399575623915 46.6032003296974 -60.61019710972271 17.28420009097288 -9.937279789491987 -32.43350161345322 0.9875629648269805 -27.016200252507428 4.1092800075269755 2.198539942799591e-11 -3.6153798414771143e-09 -9.919409578597931e-10 6.126839768564228e-11 -6.196900107708419e-09 -1.718620077161512e-09 2.1981900507245255e-11 -3.6153798414771143e-09 -9.919320125497515e-10 -7.730910121524428 5.474879855648998 -0.41731399283890674 2.198650050869374e-11 -3.615369902243735e-09 -9.919359882431032e-10 -2.90554006136521 0.9651829962377875 -0.10290200252939893 2.198249996725846e-11 -3.6153798414771143e-09 -9.919359882431032e-10 -10.278599710243157 0.7318009818271524 -0.025912300303053633 2.1993499903200262e-11 -3.6153798414771143e-09 -9.919460268688167e-10 -2.221669932038622 -0.7334870246959406 0.20891999872313852 -2.0321699793705798e-16 0.0 -3.882510030490358e-19 3.876029901144686 -34.307999219839026 -2.5596900176470294 -1.045849984934871 59.9716017430832 1.5936599712304547 0.2893720098841386 -23.927199389044972 0.7133239861009456 2.0321699793705798e-16 0.0 3.882510030490358e-19 -6.019770149517813 -35.01029976086725 -2.2200300463075844 1.059659987106402 60.8963000736762 -1.7499599924846165 5.3446998651631406 -23.369700565968312 9.913159830211733
-0.020999999378545908 76.98079943656921 0.3429999982472509 -2.3753000963792497 2.8481999829527185 2.8056000930993488 -2.9029699892465812 4.814999912008434 3.507219963088096 2.3309200884734453 -6.390009944988463 1.0445399759964038 -5.741190212048265 9.590589632505894 -4.569490042952795 7.335680371427993 -11.702299708766246 -7.53356973470348 -0.0 0.0 0.0 -0.0 0.0 0.0 -4.290080148475322e-14 -2.871860012918209e-15 1.4245100493371893e-13 45.13960007359039 39.89120075308255 52.34039872306262 -19.091799409533003 -11.910699879400736 36.51839869941689 -0.659801022939139 -22.433199668489525 -3.3262799276814072 -3.833510133526252e-11 1.199560013648363e-09 -3.1156000519621627e-10 -6.129399742361554e-11 2.0760400778923324e-09 -5.409479947808114e-10 -3.833639964762273e-11 1.199560013648363e-09 -3.115709880491007e-10 7.730910121524428 5.474879855648998 0.41731399283890674 -3.833150146917286e-11 1.199560013648363e-09 -3.1155101019000776e-10 2.90554006136521 0.9651829962377875 0.10290200252939893 -3.832479869866251e-11 1.199560013648363e-09 -3.11556004654781e-10 10.278599710243157 0.7318009818271524 0.025912300303053633 -3.834269863677703e-11 1.199560013648363e-09 -3.115520041133457e-10 2.221669932038622 -0.7334870246959406 -0.20891999872313852 -4.2875998899503965e-14 -2.8777300389795555e-15 1.4237500474098254e-13 -51.78069887152592 46.63809918126158 -60.430399210011295 17.26730049541898 -9.920060028820737 -32.396499063624674 0.9882729843355444 -27.024999243705697 4.110850097262432 -5.63390982536556e-10 -1.54397999408037e-09 6.009789765467595e-11 -9.729339630833672e-10 -2.709790048688052e-09 9.182929778829949e-11 -5.633969957727507e-10 -1.54397999408037e-09 6.010489860218768e-11 -7.730910121524428 5.474879855648998 -0.41731399283890674 -5.633919764598939e-10 -1.54397999408037e-09 6.009369832857307e-11 -2.90554006136521 0.9651829962377875 -0.10290200252939893 -5.633969957727507e-10 -1.5439900327060832e-09 6.00958973839583e-11 -10.278599710243157 0.7318009818271524 -0.025912300303053633 -5.633860129198663e-10 -1.5439900327060832e-09 6.008439893334231e-11 -2.221669932038622 -0.7334870246959406 0.20891999872313852 -2.0321699793705798e-16 0.0 -3.882510030490358e-19 3.9096199177091626 -34.26840119812588 -2.5903500965009822 -1.0499900400672508 60.034097973988814 1.5973799697288786 0.3337420126300257 -24.019099584327492 0.7940930007487563 2.0321699793705798e-16 0.0 3.882510030490358e-19 -6.014060111371682 -34.98969991033049 -2.2800400883553165 1.0664899628330033 61.00309691153853 -1.7590999595328574 5.421449847092927 -23.432200211968514 10.040300386516934
